<?xml version="1.0" encoding="UTF-8"?> <svg xmlns="http://www.w3.org/2000/svg" width="223" height="40" viewBox="0 0 223 40" fill="none"><path fill-rule="evenodd" clip-rule="evenodd" d="M19.3408 2.55322V37.4468C29.0938 37.4468 36.9999 29.6355 36.9999 20C36.9999 10.3645 29.0938 2.55322 19.3408 2.55322" fill="#21C0CC"></path><path fill-rule="evenodd" clip-rule="evenodd" d="M19.3408 5.10645V34.0426C27.2362 34.0426 33.6363 27.565 33.6363 19.5745C33.6363 11.5841 27.2362 5.10645 19.3408 5.10645" fill="#AFEFEF"></path><path fill-rule="evenodd" clip-rule="evenodd" d="M19.3408 9.36182V30.6384C25.3785 30.6384 30.2726 25.8754 30.2726 20.0001C30.2726 14.1248 25.3785 9.36182 19.3408 9.36182" fill="white"></path><path fill-rule="evenodd" clip-rule="evenodd" d="M0.591033 19.9998C0.591033 29.6109 7.71778 37.6956 16.8182 39.2752V40C7.28421 38.456 0 30.0892 0 19.9998C0 9.91028 7.28421 1.54399 16.8182 0V0.59418C7.71778 2.19624 0.591033 10.3891 0.591033 19.9998" fill="#21C0CC"></path><path fill-rule="evenodd" clip-rule="evenodd" d="M16.8185 5.95752V6.39471C10.8528 7.89402 6.30229 13.4895 6.30229 20.0001C6.30229 26.5107 10.8528 32.0364 16.8185 33.5151V34.0426C10.5586 32.5836 5.88672 26.85 5.88672 20.0001C5.88672 13.15 10.5586 7.41647 16.8185 5.95752" fill="#AFEFEF"></path><path fill-rule="evenodd" clip-rule="evenodd" d="M51.3591 26.1604C50.3099 25.6006 49.4878 24.8272 48.8928 23.8402C48.2973 22.8533 48 21.7398 48 20.5C48 19.2602 48.3008 18.1467 48.9021 17.1598C49.5029 16.1728 50.3285 15.399 51.3773 14.8392C52.4265 14.2799 53.6014 14 54.9021 14C55.957 14 56.92 14.1805 57.7914 14.5414C58.6624 14.9024 59.3988 15.4264 60 16.1126L58.454 17.539C57.5217 16.552 56.3743 16.0581 55.0123 16.0581C54.1289 16.0581 53.3374 16.2478 52.638 16.627C51.939 17.0059 51.3928 17.5329 51 18.2069C50.6072 18.8813 50.4112 19.6455 50.4112 20.5C50.4112 21.3549 50.6072 22.1191 51 22.7931C51.3928 23.4671 51.939 23.9937 52.638 24.373C53.3374 24.7522 54.1289 24.9414 55.0123 24.9414C56.3743 24.9414 57.5217 24.4423 58.454 23.4431L60 24.8874C59.3988 25.5736 58.6593 26.0971 57.7826 26.4581C56.9049 26.8195 55.9388 27 54.8834 27C53.5827 27 52.4082 26.7201 51.3591 26.1604" fill="#21C0CC"></path><path fill-rule="evenodd" clip-rule="evenodd" d="M71.3395 24.373C72.0325 23.9937 72.5772 23.464 72.9735 22.7839C73.3694 22.1043 73.5675 21.3427 73.5675 20.5C73.5675 19.6577 73.3694 18.8961 72.9735 18.2161C72.5772 17.536 72.0325 17.0063 71.3395 16.627C70.6459 16.2478 69.8663 16.0581 68.9998 16.0581C68.1332 16.0581 67.3536 16.2478 66.6605 16.627C65.967 17.0063 65.4223 17.536 65.0265 18.2161C64.6302 18.8961 64.4325 19.6577 64.4325 20.5C64.4325 21.3427 64.6302 22.1043 65.0265 22.7839C65.4223 23.464 65.967 23.9937 66.6605 24.373C67.3536 24.7522 68.1332 24.9414 68.9998 24.9414C69.8663 24.9414 70.6459 24.7522 71.3395 24.373M65.4165 26.1604C64.3518 25.6006 63.5162 24.8242 62.9101 23.8311C62.3031 22.8384 62 21.7276 62 20.5C62 19.2724 62.3031 18.1616 62.9101 17.1685C63.5162 16.1758 64.3518 15.3994 65.4165 14.8396C66.4808 14.2799 67.6755 14 68.9998 14C70.3245 14 71.5188 14.2799 72.5835 14.8396C73.6478 15.3994 74.4834 16.1728 75.0899 17.1598C75.6965 18.1467 76 19.2606 76 20.5C76 21.7398 75.6965 22.8537 75.0899 23.8402C74.4834 24.8277 73.6478 25.6006 72.5835 26.1604C71.5188 26.7201 70.3245 27 68.9998 27C67.6755 27 66.4808 26.7201 65.4165 26.1604" fill="#21C0CC"></path><path fill-rule="evenodd" clip-rule="evenodd" d="M79.1376 26.5846C78.237 26.3077 77.5244 25.9407 77 25.4829L77.8047 23.6594C78.3174 24.0688 78.9467 24.4031 79.6922 24.6616C80.4373 24.9206 81.1858 25.0501 81.9374 25.0501C82.8673 25.0501 83.5623 24.8997 84.0214 24.5984C84.4806 24.2976 84.7099 23.9005 84.7099 23.407C84.7099 23.0456 84.5816 22.7479 84.3255 22.5129C84.0689 22.2784 83.7441 22.0949 83.3506 21.9623C82.9572 21.8303 82.4203 21.6799 81.7404 21.5111C80.7863 21.2827 80.014 21.0539 79.424 20.825C78.8335 20.5966 78.3265 20.2382 77.9032 19.7508C77.4799 19.263 77.2682 18.6043 77.2682 17.7739C77.2682 17.0755 77.4561 16.4408 77.8319 15.8689C78.2072 15.2973 78.7735 14.8427 79.5311 14.5057C80.2883 14.1687 81.2156 14 82.3131 14C83.0759 14 83.8275 14.0968 84.5669 14.289C85.3064 14.4817 85.9444 14.7585 86.4813 15.1195L85.7478 16.943C85.1989 16.6182 84.6266 16.3715 84.0305 16.2028C83.434 16.0345 82.8556 15.9499 82.295 15.9499C81.3767 15.9499 80.6938 16.1064 80.2468 16.4194C79.7993 16.7329 79.576 17.1479 79.576 17.6653C79.576 18.0263 79.7039 18.3214 79.9604 18.5498C80.217 18.7787 80.5418 18.9592 80.9357 19.0917C81.3292 19.2242 81.8657 19.3746 82.5455 19.5429C83.4759 19.7596 84.2387 19.9854 84.8352 20.2203C85.4317 20.4549 85.9413 20.8132 86.3651 21.2945C86.7879 21.7758 87 22.4262 87 23.2444C87 23.9428 86.8121 24.5745 86.4363 25.1403C86.0606 25.7061 85.4913 26.1573 84.7281 26.4943C83.9648 26.8313 83.0345 27 81.9374 27C80.9711 27 80.0378 26.8614 79.1376 26.5846" fill="#21C0CC"></path><path fill-rule="evenodd" clip-rule="evenodd" d="M101.752 27L101.734 18.3827L97.5302 25.5145H96.4698L92.2665 18.4943V27H90V14H91.9554L97.0364 22.6173L102.026 14H103.982L104 27H101.752Z" fill="#21C0CC"></path><path fill-rule="evenodd" clip-rule="evenodd" d="M118 24.9755V27H108V14H117.733V16.0245H110.476V19.4044H116.914V21.3916H110.476V24.9755H118Z" fill="#21C0CC"></path><path fill-rule="evenodd" clip-rule="evenodd" d="M125.669 24.9571C126.638 24.9571 127.492 24.7746 128.229 24.4091C128.966 24.0441 129.533 23.5245 129.93 22.8492C130.327 22.1743 130.525 21.3914 130.525 20.5C130.525 19.6086 130.327 18.8257 129.93 18.1508C129.533 17.476 128.966 16.9558 128.229 16.5909C127.492 16.2254 126.638 16.0429 125.669 16.0429H122.456V24.9571H125.669ZM120 14H125.782C127.193 14 128.446 14.269 129.542 14.808C130.638 15.3465 131.489 16.1079 132.093 17.0922C132.698 18.0764 133 19.2126 133 20.5C133 21.7878 132.698 22.9236 132.093 23.9078C131.489 24.8921 130.638 25.6535 129.542 26.192C128.446 26.7305 127.193 27 125.782 27H120V14Z" fill="#21C0CC"></path><path fill-rule="evenodd" clip-rule="evenodd" d="M144.339 24.373C145.033 23.9937 145.577 23.464 145.974 22.7839C146.369 22.1043 146.568 21.3427 146.568 20.5C146.568 19.6577 146.369 18.8961 145.974 18.2161C145.577 17.536 145.033 17.0063 144.339 16.627C143.646 16.2478 142.866 16.0581 142 16.0581C141.133 16.0581 140.354 16.2478 139.661 16.627C138.967 17.0063 138.422 17.536 138.026 18.2161C137.63 18.8961 137.432 19.6577 137.432 20.5C137.432 21.3427 137.63 22.1043 138.026 22.7839C138.422 23.464 138.967 23.9937 139.661 24.373C140.354 24.7522 141.133 24.9414 142 24.9414C142.866 24.9414 143.646 24.7522 144.339 24.373M138.417 26.1604C137.352 25.6006 136.516 24.8242 135.91 23.8311C135.303 22.8384 135 21.7276 135 20.5C135 19.2724 135.303 18.1616 135.91 17.1685C136.516 16.1758 137.352 15.3994 138.417 14.8396C139.481 14.2799 140.675 14 142 14C143.325 14 144.519 14.2799 145.583 14.8396C146.648 15.3994 147.483 16.1728 148.09 17.1598C148.697 18.1467 149 19.2606 149 20.5C149 21.7398 148.697 22.8537 148.09 23.8402C147.483 24.8277 146.648 25.6006 145.583 26.1604C144.519 26.7201 143.325 27 142 27C140.675 27 139.481 26.7201 138.417 26.1604" fill="#21C0CC"></path><path fill-rule="evenodd" clip-rule="evenodd" d="M154.359 26.1604C153.31 25.6006 152.488 24.8272 151.893 23.8402C151.298 22.8533 151 21.7398 151 20.5C151 19.2602 151.301 18.1467 151.902 17.1598C152.503 16.1728 153.329 15.399 154.377 14.8392C155.426 14.2799 156.601 14 157.902 14C158.957 14 159.92 14.1805 160.791 14.5414C161.662 14.9024 162.399 15.4264 163 16.1126L161.454 17.539C160.521 16.552 159.374 16.0581 158.012 16.0581C157.129 16.0581 156.337 16.2478 155.638 16.627C154.939 17.0059 154.393 17.5329 154 18.2069C153.607 18.8813 153.411 19.6455 153.411 20.5C153.411 21.3549 153.607 22.1191 154 22.7931C154.393 23.4671 154.939 23.9937 155.638 24.373C156.337 24.7522 157.129 24.9414 158.012 24.9414C159.374 24.9414 160.521 24.4423 161.454 23.4431L163 24.8874C162.399 25.5736 161.659 26.0971 160.783 26.4581C159.905 26.8195 158.939 27 157.883 27C156.583 27 155.408 26.7201 154.359 26.1604" fill="#21C0CC"></path><path fill-rule="evenodd" clip-rule="evenodd" d="M174.983 27C174.008 27 173.066 26.8616 172.158 26.5847C171.249 26.3079 170.53 25.9407 170 25.4833L170.812 23.6597C171.33 24.069 171.965 24.403 172.717 24.6618C173.47 24.9206 174.225 25.05 174.983 25.05C175.922 25.05 176.623 24.8995 177.087 24.5986C177.55 24.2977 177.782 23.9005 177.782 23.4069C177.782 23.0458 177.653 22.7479 177.394 22.5132C177.135 22.2785 176.807 22.0949 176.41 21.9625C176.012 21.8301 175.471 21.6796 174.785 21.5111C173.822 21.2824 173.042 21.0537 172.447 20.825C171.851 20.5963 171.339 20.2382 170.912 19.7507C170.484 19.2632 170.271 18.6042 170.271 17.7736C170.271 17.0755 170.46 16.4405 170.84 15.8687C171.219 15.297 171.791 14.8426 172.555 14.5056C173.319 14.1685 174.255 14 175.363 14C176.133 14 176.891 14.0963 177.637 14.2889C178.384 14.4815 179.028 14.7583 179.569 15.1194L178.829 16.9431C178.275 16.6181 177.698 16.3713 177.096 16.2028C176.494 16.0343 175.91 15.95 175.344 15.95C174.418 15.95 173.728 16.1065 173.277 16.4194C172.826 16.7324 172.6 17.1477 172.6 17.6653C172.6 18.0264 172.729 18.3213 172.988 18.55C173.247 18.7787 173.575 18.9593 173.972 19.0917C174.369 19.2241 174.911 19.3745 175.597 19.5431C176.536 19.7597 177.306 19.9854 177.908 20.2201C178.51 20.4549 179.025 20.813 179.452 21.2944C179.879 21.7759 180.093 22.4259 180.093 23.2444C180.093 23.9426 179.903 24.5745 179.524 25.1403C179.145 25.706 178.57 26.1574 177.8 26.4944C177.03 26.8315 176.091 27 174.983 27ZM193.653 14.1806V26.8194H191.306V21.4028H184.769V26.8194H182.422V14.1806H184.769V19.3986H191.306V14.1806H193.653ZM202.951 27C201.663 27 200.502 26.7201 199.467 26.1604C198.431 25.6007 197.619 24.8243 197.029 23.8313C196.439 22.8382 196.144 21.7278 196.144 20.5C196.144 19.2722 196.439 18.1618 197.029 17.1688C197.619 16.1757 198.431 15.3993 199.467 14.8396C200.502 14.2799 201.663 14 202.951 14C204.239 14 205.401 14.2799 206.436 14.8396C207.471 15.3993 208.284 16.1727 208.874 17.1597C209.463 18.1468 209.758 19.2602 209.758 20.5C209.758 21.7398 209.463 22.8532 208.874 23.8403C208.284 24.8273 207.471 25.6007 206.436 26.1604C205.401 26.7201 204.239 27 202.951 27ZM202.951 24.9417C203.794 24.9417 204.552 24.7521 205.226 24.3729C205.9 23.9937 206.43 23.4641 206.815 22.784C207.2 22.1039 207.393 21.3426 207.393 20.5C207.393 19.6574 207.2 18.8961 206.815 18.216C206.43 17.5359 205.9 17.0063 205.226 16.6271C204.552 16.2479 203.794 16.0583 202.951 16.0583C202.109 16.0583 201.35 16.2479 200.676 16.6271C200.002 17.0063 199.473 17.5359 199.087 18.216C198.702 18.8961 198.51 19.6574 198.51 20.5C198.51 21.3426 198.702 22.1039 199.087 22.784C199.473 23.4641 200.002 23.9937 200.676 24.3729C201.35 24.7521 202.109 24.9417 202.951 24.9417ZM217.45 14.1806C218.545 14.1806 219.499 14.3611 220.312 14.7222C221.124 15.0833 221.747 15.6009 222.181 16.275C222.614 16.9491 222.831 17.7495 222.831 18.6764C222.831 19.5912 222.614 20.3887 222.181 21.0688C221.747 21.7488 221.124 22.2694 220.312 22.6306C219.499 22.9917 218.545 23.1722 217.45 23.1722H214.597V26.8194H212.25V14.1806H217.45ZM217.342 21.1861C218.365 21.1861 219.141 20.9694 219.671 20.5361C220.2 20.1028 220.465 19.4829 220.465 18.6764C220.465 17.8699 220.2 17.25 219.671 16.8167C219.141 16.3833 218.365 16.1667 217.342 16.1667H214.597V21.1861H217.342Z" fill="#21C0CC"></path></svg> 