<?xml version="1.0" encoding="UTF-8"?>
<svg width="211px" height="387px" viewBox="0 0 211 387" version="1.1" xmlns="http://www.w3.org/2000/svg" xmlns:xlink="http://www.w3.org/1999/xlink">

    <title>cosmedoc-sprite</title>
    <defs>
        <polygon id="path-1" points="7.54362881 14.958241 7.54362881 0 0 0 0 14.958241"></polygon>
    </defs>
    <g id="Page-1" stroke="none" stroke-width="1" fill="none" fill-rule="evenodd">
        <g id="kpl-sprite" transform="translate(0.000000, 1.000000)">
            <g id="cross" stroke-linecap="round" stroke-linejoin="round" transform="translate(3.000000, 184.000000)" stroke="#363636">
                <path d="M0.5,0 L13.5,13" id="Line-2"></path>
                <path d="M0.5,-1.77635684e-15 L13.5,13" id="Line-2-Copy" transform="translate(7.000000, 6.500000) scale(-1, 1) rotate(-180.000000) translate(-7.000000, -6.500000) "></path>
            </g>
            <g id="account" stroke-linecap="round" stroke-linejoin="round" transform="translate(101.000000, 150.000000)" stroke="#363636">
                <circle id="Oval" cx="7" cy="3" r="3"></circle>
                <path d="M1.96093142e-14,14 C0.485229661,10.6077059 3.40263923,8 6.92911114,8 C10.4555831,8 13.3729926,10.6077059 13.8582223,14 L1.96093142e-14,14 Z" id="Combined-Shape"></path>
            </g>
            <g id="message" stroke-linecap="round" stroke-linejoin="round" transform="translate(129.000000, 145.000000)" stroke="#363636">
                <polygon id="Path-3" transform="translate(9.899495, 9.899495) rotate(45.000000) translate(-9.899495, -9.899495) " points="3.39949485 17.399495 9.89949485 14.899495 16.3994949 17.399495 9.89949485 2.39949499"></polygon>
            </g>
            <polyline id="right" stroke="#363636" stroke-linecap="round" stroke-linejoin="round" transform="translate(10.250000, 248.500000) rotate(90.000000) translate(-10.250000, -248.500000) " points="3.75 251.75 10.25 245.25 16.75 251.75"></polyline>
            <polyline id="left" stroke="#363636" stroke-linecap="round" stroke-linejoin="round" transform="translate(44.250000, 248.500000) rotate(-90.000000) translate(-44.250000, -248.500000) " points="37.75 251.75 44.25 245.25 50.75 251.75"></polyline>
            <g id="menu" stroke-linecap="round" stroke-linejoin="round" transform="translate(2.000000, 150.000000)" stroke="#363636">
                <path d="M0,1 L17,1" id="Line-Copy-2"></path>
                <path d="M0,15 L17,15" id="Line-Copy-3"></path>
                <path d="M0,8 L17,8" id="Line-Copy-4"></path>
            </g>
            <g id="INSTA" transform="translate(1.000000, 113.000000)" fill="#363636">
                <path d="M8.99946204,5.5 C7.06655395,5.5 5.5,7.06637712 5.5,8.99865478 C5.5,10.9330848 7.06655395,12.5 8.99946204,12.5 C10.933984,12.5 12.5,10.9330848 12.5,8.99865478 C12.5,7.06637712 10.933984,5.5 8.99946204,5.5" id="Fill-1"></path>
                <path d="M14.5340312,4.71055099 C13.8476562,4.71055099 13.2893125,4.15374879 13.2893125,3.46518424 C13.2893125,2.77874488 13.8476562,2.22194268 14.5340312,2.22194268 C15.2204062,2.22194268 15.7782187,2.77874488 15.7782187,3.46518424 C15.7782187,4.15374879 15.2204062,4.71055099 14.5340312,4.71055099 M8.99946875,14.3238897 C6.05846875,14.3238897 3.67634375,11.9410101 3.67634375,8.99973435 C3.67634375,6.05952121 6.05846875,3.67611026 8.99946875,3.67611026 C11.9404688,3.67611026 14.3236563,6.05952121 14.3236563,8.99973435 C14.3236563,11.9410101 11.9404688,14.3238897 8.99946875,14.3238897 M17.4394375,4.81043535 C17.3926875,3.79937182 17.22375,3.25000781 17.0824375,2.88394224 C16.8933125,2.40099072 16.6685937,2.05617714 16.3068125,1.69329937 C15.9445,1.3309529 15.5970625,1.10515048 15.1141563,0.91813295 C14.7491875,0.7768072 14.2009375,0.60732256 13.1899688,0.56003688 C12.0955938,0.510626 11.7678125,0.5 8.99946875,0.5 C6.2321875,0.5 5.903875,0.510626 4.8105625,0.56003688 C3.80065625,0.60732256 3.25134375,0.7768072 2.8853125,0.91813295 C2.401875,1.10515048 2.05603125,1.3309529 1.69371875,1.69329937 C1.33034375,2.05617714 1.10615625,2.40099072 0.91809375,2.88394224 C0.77678125,3.25000781 0.60625,3.79937182 0.56109375,4.81043535 C0.51115625,5.90331906 0.5,6.23166234 0.5,8.99973435 C0.5,11.7678064 0.51115625,12.0966809 0.56109375,13.1916898 C0.60625,14.2011595 0.77678125,14.7510548 0.91809375,15.1155265 C1.10615625,15.5990093 1.33034375,15.9454168 1.69371875,16.3088258 C2.05603125,16.6711723 2.401875,16.8953808 2.8853125,17.0839922 C3.25134375,17.225318 3.80065625,17.3932087 4.8105625,17.4399631 C5.903875,17.4899053 6.2321875,17.5 8.99946875,17.5 C11.7683438,17.5 12.0955938,17.4899053 13.1899688,17.4399631 C14.2009375,17.3932087 14.7491875,17.225318 15.1141563,17.0839922 C15.5970625,16.8953808 15.9445,16.6711723 16.3068125,16.3088258 C16.6685937,15.9454168 16.8933125,15.5990093 17.0824375,15.1155265 C17.22375,14.7510548 17.3926875,14.2011595 17.4394375,13.1916898 C17.4888438,12.0966809 17.5,11.7678064 17.5,8.99973435 C17.5,6.23166234 17.4888438,5.90331906 17.4394375,4.81043535" id="Fill-3" fill-rule="nonzero"></path>
            </g>
            <g id="FACEBOOK" transform="translate(36.000000, 113.000000)" fill="#363636">
                <path d="M2.06080635,10.1309722 L2.06080635,17.4726111 L5.3848865,17.5 L5.3721084,10.1101944 L7.4271866,10.0960278 L8,6.90852778 L5.3703459,6.90852778 L5.3703459,4.55638889 C5.3703459,4.24 5.4849086,3.67333333 5.9488874,3.67333333 L7.4805023,3.70025 L7.4280679,0.51463889 L4.397885,0.5 C3.358449,0.5 2.0616876,1.97097222 2.0616876,3.47641667 L2.03569068,6.89105556 L0,6.93497222 L0,10.1191667 L2.06080635,10.1309722 Z" id="Fill-1"></path>
            </g>
            <g id="YOUTUBE" transform="translate(61.000000, 116.000000)" fill="#363636" fill-rule="nonzero">
                <path d="M17.6238054,1.87380056 C18,3.21067733 18,6 18,6 C18,6 18,8.7893227 17.6238054,10.1260583 C17.4168169,10.8636406 16.8068157,11.4445908 16.0323497,11.6417215 C14.6286208,12 8.99992592,12 8.99992592,12 C8.99992592,12 3.37123102,12 1.96750216,11.6417215 C1.19303618,11.4445908 0.58303494,10.8636406 0.37604643,10.1260583 C0,8.7893227 0,6 0,6 C0,6 0,3.21067733 0.37604643,1.87380056 C0.58303494,1.13621825 1.19303618,0.55540922 1.96750216,0.35827846 C3.37123102,0 8.99992592,0 8.99992592,0 C8.99992592,0 14.6286208,0 16.0323497,0.35827846 C16.8068157,0.55540922 17.4168169,1.13621825 17.6238054,1.87380056 Z M7,9 L12,6 L7,3 L7,9 Z" id="Combined-Shape"></path>
            </g>
            <g id="_keep-sprite">
                <polyline id="Path-2" stroke="#000000" points="0 0 4.50402927 3.95963846 9 0.0143059284"></polyline>
                <g id="Page-1" transform="translate(5.000000, 80.000000)">
                    <g id="Fill-1-Clipped">
                        <g>
                            <mask id="mask-2" fill="white">
                                <use xlink:href="#path-1"></use>
                            </mask>
                            <g id="path-1"></g>
                            <path d="M1.9432687,8.47416898 L1.9432687,14.9341413 L5.07789474,14.958241 L5.06584488,8.45588643 L7.00379501,8.44342105 L7.54396122,5.63871191 L5.06418283,5.63871191 L5.06418283,3.56904432 C5.06418283,3.29065097 5.17221607,2.79203601 5.60975069,2.79203601 L7.05407202,2.81572022 L7.00462604,0.0126731302 L4.14714681,-0.000207756232 C3.16695291,-0.000207756232 1.94409972,1.29411357 1.94409972,2.61876731 L1.91958449,5.62333795 L-8.31024926e-05,5.66198061 L-8.31024926e-05,8.46378116 L1.9432687,8.47416898 Z" id="Fill-1" fill="#000000" mask="url(#mask-2)"></path>
                        </g>
                    </g>
                </g>
                <g id="Page-1" transform="translate(42.000000, 83.000000)" fill="#000000">
                    <path d="M5.999625,3.5610375 C4.65225,3.5610375 3.56025,4.6526625 3.56025,5.9992875 C3.56025,7.3474125 4.65225,8.4394125 5.999625,8.4394125 C7.348125,8.4394125 8.43975,7.3474125 8.43975,5.9992875 C8.43975,4.6526625 7.348125,3.5610375 5.999625,3.5610375" id="Fill-1"></path>
                    <path d="M9.906375,2.9719875 C9.421875,2.9719875 9.02775,2.5789875 9.02775,2.0929875 C9.02775,1.6084875 9.421875,1.2154875 9.906375,1.2154875 C10.390875,1.2154875 10.784625,1.6084875 10.784625,2.0929875 C10.784625,2.5789875 10.390875,2.9719875 9.906375,2.9719875 M5.999625,9.7572375 C3.923625,9.7572375 2.242125,8.0753625 2.242125,5.9993625 C2.242125,3.9241125 3.923625,2.2418625 5.999625,2.2418625 C8.075625,2.2418625 9.757875,3.9241125 9.757875,5.9993625 C9.757875,8.0753625 8.075625,9.7572375 5.999625,9.7572375 M11.95725,3.0424875 C11.92425,2.3288625 11.805,1.9411125 11.70525,1.6827375 C11.57175,1.3418625 11.413125,1.0984875 11.15775,0.8423625 C10.902,0.5866125 10.65675,0.4272375 10.315875,0.2952375 C10.05825,0.1954875 9.67125,0.0758625 8.957625,0.0424875 C8.185125,0.0076125 7.95375,0.0001125 5.999625,0.0001125 C4.04625,0.0001125 3.8145,0.0076125 3.04275,0.0424875 C2.329875,0.0758625 1.942125,0.1954875 1.68375,0.2952375 C1.3425,0.4272375 1.098375,0.5866125 0.842625,0.8423625 C0.586125,1.0984875 0.427875,1.3418625 0.295125,1.6827375 C0.195375,1.9411125 0.075,2.3288625 0.043125,3.0424875 C0.007875,3.8138625 0,4.0456125 0,5.9993625 C0,7.9531125 0.007875,8.1852375 0.043125,8.9581125 C0.075,9.6706125 0.195375,10.0587375 0.295125,10.3159875 C0.427875,10.6572375 0.586125,10.9017375 0.842625,11.1582375 C1.098375,11.4139875 1.3425,11.5722375 1.68375,11.7053625 C1.942125,11.8051125 2.329875,11.9236125 3.04275,11.9566125 C3.8145,11.9918625 4.04625,11.9989875 5.999625,11.9989875 C7.954125,11.9989875 8.185125,11.9918625 8.957625,11.9566125 C9.67125,11.9236125 10.05825,11.8051125 10.315875,11.7053625 C10.65675,11.5722375 10.902,11.4139875 11.15775,11.1582375 C11.413125,10.9017375 11.57175,10.6572375 11.70525,10.3159875 C11.805,10.0587375 11.92425,9.6706125 11.95725,8.9581125 C11.992125,8.1852375 12,7.9531125 12,5.9993625 C12,4.0456125 11.992125,3.8138625 11.95725,3.0424875" id="Fill-3" fill-rule="nonzero"></path>
                </g>
                <g id="Group" transform="translate(4.000000, 20.000000)" stroke="#000000">
                    <path d="M9.7695313,0.3322754 L0.24414062,9.6335449" id="Line-2"></path>
                    <path d="M0.24414062,0.3322754 L9.7695313,9.6335449" id="Line-3"></path>
                </g>
                <polygon id="Path-6" stroke="#000000" points="9 48.25 7.5 47 5.25 47 4 48.25 4 50.75 9 55.75 14 50.75 14 48.25 12.75 47 10.25 47"></polygon>
                <polyline id="Arrow" stroke="#FFFFFF" transform="translate(18.979819, 4.500000) rotate(-90.000000) translate(-18.979819, -4.500000) " points="14.4798192 2.52018077 18.9838485 6.47981923 23.4798192 2.5344867"></polyline>
                <g id="arrow-white-copy" stroke-linecap="square" transform="translate(31.000000, 0.000000)" stroke="#FFFFFF">
                    <path d="M0.5,0.5 L9.5,9.5" id="Line"></path>
                    <path d="M9.5,0.5 L0.5,9.5" id="Line-Copy"></path>
                </g>
                <g id="plus-copy-4" stroke-linecap="square" transform="translate(47.000000, 63.000000) rotate(90.000000) translate(-47.000000, -63.000000) translate(44.000000, 61.000000)" stroke="#000000" stroke-width="0.5">
                    <path d="M3,0.8 L5.4,3.2" id="Line-2"></path>
                    <path d="M0.6,3.2 L3,0.8" id="Line-3"></path>
                </g>
                <g id="plus-copy-4" stroke-linecap="square" transform="translate(41.000000, 63.000000) scale(-1, 1) rotate(90.000000) translate(-41.000000, -63.000000) translate(38.000000, 61.000000)" stroke="#000000" stroke-width="0.5">
                    <path d="M3,0.8 L5.4,3.2" id="Line-2"></path>
                    <path d="M0.6,3.2 L3,0.8" id="Line-3"></path>
                </g>
            </g>
            <g id="mail" stroke-linecap="round" stroke-linejoin="round" transform="translate(101.000000, 185.000000)" stroke="#363636">
                <polyline id="Path-3-Copy" points="1.04156876e-15 9 7 3 14 9"></polyline>
                <polyline id="Path-3" fill="#FFFFFF" transform="translate(7.000000, 3.000000) rotate(-180.000000) translate(-7.000000, -3.000000) " points="0 6 7 4.4408921e-16 14 6"></polyline>
                <polygon id="Path-2" points="0 0 0 9 14 9 14 0"></polygon>
            </g>
            <g id="miniplus" transform="translate(24.500000, 22.500000) rotate(135.000000) translate(-24.500000, -22.500000) translate(22.000000, 20.000000)" stroke="#000000" stroke-width="0.5">
                <path d="M2.5,0 L2.5,5" id="Line-2"></path>
                <path d="M0,2.5 L5,2.5" id="Line-3"></path>
            </g>
            <g id="orders" stroke-linecap="round" stroke-linejoin="round" transform="translate(159.000000, 184.000000)" stroke="#363636">
                <polygon id="Path-2" points="0 4 0 16 12 16 12 4"></polygon>
                <polygon id="Path-2-Copy" fill="#FFFFFF" points="8 8 8 16 16 16 16 8"></polygon>
                <path d="M3,6 C3,2.57142857 3,0.857142857 3,0.857142857 C3,0.857142857 3,0 4,8.32667268e-17 C5,1.66533454e-16 7.0766534,1.13077346e-16 8,0 C8.66666667,0 9,0.285714286 9,0.857142857 L9,6" id="Path-4"></path>
                <path d="M10,12.5 C10,11.1666667 10,11 10,11 C10,11 10,10 11,10 C12,10 12.3844356,10 13,10 C13.6666667,10 14,10.3333333 14,11 L14,12.5" id="Path-4-Copy-3" transform="translate(12.000000, 11.250000) rotate(-180.000000) translate(-12.000000, -11.250000) "></path>
            </g>
            <g id="plus" transform="translate(22.000000, 33.000000)" stroke="#000000" stroke-width="0.5">
                <path d="M2.5,0 L2.5,5" id="Line-2"></path>
                <path d="M0,2.5 L5,2.5" id="Line-3"></path>
            </g>
            <g id="share" stroke-linecap="round" stroke-linejoin="round" transform="translate(65.000000, 185.000000)" stroke="#363636">
                <path d="M7,13.5 L7,0" id="Line-3"></path>
                <polyline id="Path-3" points="4 3 7 -7.966394e-16 10 3"></polyline>
                <polyline id="Path-2" points="0 8 0 16 14 16 14 8"></polyline>
            </g>
            <g id="gift" stroke-linecap="round" stroke-linejoin="round" transform="translate(129.000000, 184.000000)" stroke="#363636">
                <polygon id="Path-2" points="0 3 0 5 14 5 14 3"></polygon>
                <polygon id="Path-2-Copy" fill="#FFFFFF" transform="translate(9.000000, 9.000000) rotate(-90.000000) translate(-9.000000, -9.000000) " points="3 8 3 10 15 10 15 8"></polygon>
                <polyline id="Path-2" points="1 5 1 15 13 15 13 5"></polyline>
                <path d="M7.5,3 C7.80491577,3 8.30491577,3 9,3 C9,2.24736898 9,1.74736898 9,1.5 C9,0.671572875 8.32842712,-1.55431223e-15 7.5,-1.55431223e-15 C6.67157288,-1.55431223e-15 6,0.671572875 6,1.5 C6,2.32842712 6.67157288,3 7.5,3 Z" id="Oval"></path>
                <path d="M10.5,3 C10.8049158,3 11.3049158,3 12,3 C12,2.24736898 12,1.74736898 12,1.5 C12,0.671572875 11.3284271,-1.55431223e-15 10.5,-1.55431223e-15 C9.67157288,-1.55431223e-15 9,0.671572875 9,1.5 C9,2.32842712 9.67157288,3 10.5,3 Z" id="Oval-Copy" transform="translate(10.500000, 1.500000) scale(-1, 1) translate(-10.500000, -1.500000) "></path>
            </g>
            <g id="alerts" transform="translate(7.000000, 276.000000)">
                <circle id="Oval" stroke="#E88565" cx="30.5" cy="5.5" r="5.25"></circle>
                <polyline id="Path-5" stroke="#E88565" stroke-linecap="round" stroke-linejoin="round" points="30.5 2.5 30.5 5.5 33.5 5.5"></polyline>
                <circle id="Oval" stroke="#E88565" cx="5.5" cy="5.5" r="5.25"></circle>
                <g id="Group" stroke-linecap="round" transform="translate(2.500000, 2.500000)" fill="#E88565" stroke="#E88565">
                    <path d="M0.5,0.5 L5.5,5.5" id="Line-7"></path>
                    <path d="M0.5,0.5 L5.5,5.5" id="Line-7" transform="translate(3.000000, 3.000000) rotate(-90.000000) translate(-3.000000, -3.000000) "></path>
                </g>
                <circle id="Oval" stroke="#89937A" cx="80.5" cy="5.5" r="5.25"></circle>
                <polyline id="Path-3" stroke="#89937A" stroke-linecap="round" stroke-linejoin="round" transform="translate(80.500000, 5.500000) rotate(-180.000000) translate(-80.500000, -5.500000) " points="77.5 7.5 81.5 3.5 83.5 5.5"></polyline>
                <polygon id="Path-5" stroke="#E88565" stroke-linecap="round" stroke-linejoin="round" points="54.5 2 55.5 7 56.5 2"></polygon>
                <circle id="Oval" stroke="#E88565" transform="translate(55.500000, 8.500000) scale(-1, 1) rotate(-180.000000) translate(-55.500000, -8.500000) " cx="55.5" cy="8.5" r="1"></circle>
                <circle id="Oval" stroke="#E88565" cx="55.5" cy="5.5" r="5.25"></circle>
            </g>
            <g id="promo" stroke-linecap="round" stroke-linejoin="round" transform="translate(159.000000, 239.000000)" stroke="#363636">
                <polygon id="Star" points="8 14.421503 5.92944764 15.7274066 4.78924851 13.5611847 2.34314575 13.6568542 2.43881529 11.2107515 0.27259339 10.0705524 1.57849702 8 0.27259339 5.92944764 2.43881529 4.78924851 2.34314575 2.34314575 4.78924851 2.43881529 5.92944764 0.27259339 8 1.57849702 10.0705524 0.27259339 11.2107515 2.43881529 13.6568542 2.34314575 13.5611847 4.78924851 15.7274066 5.92944764 14.421503 8 15.7274066 10.0705524 13.5611847 11.2107515 13.6568542 13.6568542 11.2107515 13.5611847 10.0705524 15.7274066"></polygon>
                <path d="M5.5,10.5 L10.6623964,5.33760361" id="Line-5"></path>
                <circle id="Oval" cx="6" cy="6" r="1"></circle>
                <circle id="Oval-Copy" cx="10" cy="10" r="1"></circle>
            </g>
            <g id="LOTO_ICON" transform="translate(191.000000, 238.000000)">
                <g id="Group" transform="translate(10.000000, 10.000000) rotate(-45.000000) translate(-10.000000, -10.000000) translate(2.000000, 5.000000)">
                    <path d="M16,0 L16,3 C14.8954305,3 14,3.8954305 14,5 C14,6.1045695 14.8954305,7 16,7 L16,10 L0,10 L0,7 C1.1045695,7 2,6.1045695 2,5 C2,3.8954305 1.1045695,3 0,3 L0,0 L16,0 Z" id="Combined-Shape" stroke="#E88565" fill="#E88565"></path>
                    <polygon id="Star" stroke="#FFFFFF" fill="#FFFFFF" points="8 6.5 6.23664424 7.42705098 6.57341523 5.46352549 5.14683045 4.07294902 7.11832212 3.78647451 8 2 8.88167788 3.78647451 10.8531695 4.07294902 9.42658477 5.46352549 9.76335576 7.42705098"></polygon>
                </g>
            </g>
            <g id="heart" transform="translate(7.000000, 303.000000)">
                <circle id="Oval" stroke="#E88565" fill="#E88565" cx="20" cy="20" r="20"></circle>
                <path d="M19.9497475,14.8786797 L21.363961,13.4644661 C23.3165825,11.5118446 26.4824074,11.5118446 28.4350288,13.4644661 C30.3876503,15.4170876 30.3876503,18.5829124 28.4350288,20.5355339 L27.0208153,21.9497475 L19.9497475,29.0208153 L11.4644661,20.5355339 C9.51184464,18.5829124 9.51184464,15.4170876 11.4644661,13.4644661 C13.4170876,11.5118446 16.5829124,11.5118446 18.5355339,13.4644661 L19.9497475,14.8786797 Z" id="Combined-Shape" stroke="#FFFFFF" fill="#FFFFFF" stroke-linecap="round" stroke-linejoin="round"></path>
            </g>
            <g id="cart" stroke-linecap="round" stroke-linejoin="round" transform="translate(64.000000, 148.000000)" stroke="#363636">
                <rect id="Rectangle" x="0" y="2" width="18" height="15" rx="0.5"></rect>
                <path d="M6,2 L6,1 C6,0.333333333 6.33333333,0 7,0 C7.66666667,0 9,0 11,0 C11.6666667,0 12,0.333333333 12,1 C12,1.66666667 12,2 12,2" id="Path-6"></path>
            </g>
            <g id="search" stroke-linecap="round" stroke-linejoin="round" transform="translate(33.000000, 150.000000)" stroke="#363636">
                <circle id="Oval" cx="6" cy="6" r="6"></circle>
                <path d="M10.24969,15 L14.5,10.74969" id="Path-3" transform="translate(12.374845, 12.874845) rotate(-90.000000) translate(-12.374845, -12.874845) "></path>
            </g>
            <g id="DELETE-WHITE" stroke-linecap="round" stroke-linejoin="round" transform="translate(77.000000, 244.000000)" stroke="#FFFFFF" stroke-width="0.5">
                <path d="M4.06218476,-0.75368049 L4.0088839,7.67830001" id="Line" transform="translate(4.035534, 3.462310) rotate(45.000000) translate(-4.035534, -3.462310) "></path>
                <path d="M4.00888224,-0.75367894 L4.0621831,7.67830162" id="Line" transform="translate(4.035533, 3.462311) rotate(135.000000) translate(-4.035533, -3.462311) "></path>
            </g>
            <polygon id="bookmark-grey" stroke="#C7C6C4" fill="#C7C6C4" stroke-linejoin="round" points="185 165 191.5 158.5 198 165 198 150 185 150"></polygon>
            <polygon id="bookmark" stroke="#363636" stroke-linecap="round" stroke-linejoin="round" points="159 165 165.5 158.5 172 165 172 150 159 150"></polygon>
            <path d="M131,242.5 L131,251.5" id="Line" stroke="#363636" stroke-linecap="round" stroke-linejoin="round" transform="translate(131.000000, 247.000000) rotate(90.000000) translate(-131.000000, -247.000000) "></path>
            <g id="plus" stroke-linecap="round" stroke-linejoin="round" transform="translate(104.000000, 242.000000)" stroke="#363636">
                <path d="M5,0.5 L5,9.5" id="Line"></path>
                <path d="M5,0.5 L5,9.5" id="Line" transform="translate(5.000000, 5.000000) rotate(90.000000) translate(-5.000000, -5.000000) "></path>
            </g>
            <g id="BOX-EMPTY" transform="translate(5.000000, 371.000000)" fill="#FFFFFF" stroke="#C7C6C4">
                <rect id="Rectangle" x="0.5" y="0" width="14" height="14" rx="1"></rect>
            </g>
            <g id="BOX-CHECK" transform="translate(35.000000, 371.000000)" stroke="#363636">
                <rect id="Rectangle" fill="#FFFFFF" x="0.5" y="0" width="14" height="14" rx="1"></rect>
                <polyline id="Path-3" stroke-linecap="round" stroke-linejoin="round" transform="translate(7.500000, 7.000000) rotate(-180.000000) translate(-7.500000, -7.000000) " points="3 10 9 4 12 7"></polyline>
            </g>
            <g id="cancel" stroke-linecap="round" stroke-linejoin="round" transform="translate(54.000000, 0.000000)" stroke="#FFFFFF">
                <path d="M0.5,0 L13.5,13" id="Line-2"></path>
                <path d="M0.5,-8.8817842e-16 L13.5,13" id="Line-2-Copy" transform="translate(7.000000, 6.500000) scale(-1, 1) rotate(-180.000000) translate(-7.000000, -6.500000) "></path>
            </g>
        </g>
    </g>
</svg>
